<?xml version="1.0" encoding="UTF-8" standalone="no"?>
<svg
   xmlns:dc="http://purl.org/dc/elements/1.1/"
   xmlns:cc="http://creativecommons.org/ns#"
   xmlns:rdf="http://www.w3.org/1999/02/22-rdf-syntax-ns#"
   xmlns:svg="http://www.w3.org/2000/svg"
   xmlns="http://www.w3.org/2000/svg"
   xmlns:xlink="http://www.w3.org/1999/xlink"
   id="svg8"
   version="1.1"
   viewBox="0 0 68.158661 68.158661"
   height="68.158661mm"
   width="68.158661mm">
  <defs
     id="defs2">
    <linearGradient
       id="linearGradient978">
      <stop
         id="stop974"
         offset="0"
         style="stop-color:#ffffff;stop-opacity:1" />
      <stop
         style="stop-color:#ffffff;stop-opacity:1"
         offset="0.561382"
         id="stop982" />
      <stop
         id="stop976"
         offset="1"
         style="stop-color:#efefef;stop-opacity:1" />
    </linearGradient>
    <linearGradient
       id="linearGradient927">
      <stop
         id="stop923"
         offset="0"
         style="stop-color:#ffd84c;stop-opacity:1;" />
      <stop
         style="stop-color:#ffd344;stop-opacity:1"
         offset="0.51748025"
         id="stop933" />
      <stop
         style="stop-color:#386e9d;stop-opacity:1"
         offset="0.52345264"
         id="stop931" />
      <stop
         id="stop925"
         offset="1"
         style="stop-color:#376fa0;stop-opacity:1" />
    </linearGradient>
    <linearGradient
       gradientTransform="translate(-100.16369,68.791667)"
       gradientUnits="userSpaceOnUse"
       y2="174.12149"
       x2="129.21498"
       y1="104.82467"
       x1="96.801361"
       id="linearGradient929"
       xlink:href="#linearGradient927" />
    <radialGradient
       gradientTransform="translate(-5.1464758e-5,2.6458334)"
       gradientUnits="userSpaceOnUse"
       r="34.07933"
       fy="136.36012"
       fx="114.94257"
       cy="136.36012"
       cx="114.94257"
       id="radialGradient980"
       xlink:href="#linearGradient978" />
  </defs>
  <metadata
     id="metadata5">
    <rdf:RDF>
      <cc:Work
         rdf:about="">
        <dc:format>image/svg+xml</dc:format>
        <dc:type
           rdf:resource="http://purl.org/dc/dcmitype/StillImage" />
        <dc:title></dc:title>
      </cc:Work>
    </rdf:RDF>
  </metadata>
  <g
     transform="translate(-80.863235,-104.92663)"
     id="layer1">
    <rect
       ry="20.660433"
       rx="20.660433"
       y="105.42663"
       x="81.363235"
       height="67.158661"
       width="67.158661"
       id="rect886-2"
       style="opacity:1;fill:url(#radialGradient980);fill-opacity:1;fill-rule:evenodd;stroke:#000000;stroke-width:1;stroke-linecap:round;stroke-linejoin:bevel;stroke-miterlimit:4;stroke-dasharray:none;stroke-opacity:1;paint-order:normal" />
    <g
       transform="translate(0,-7.4083331)"
       id="g944">
      <circle
         style="opacity:1;fill:#4a7fab;fill-opacity:1;fill-rule:evenodd;stroke:#000000;stroke-width:2.23168135;stroke-linecap:round;stroke-linejoin:bevel;stroke-miterlimit:3;stroke-dasharray:none;stroke-opacity:1;paint-order:normal"
         id="path837"
         cx="98.69902"
         cy="132.40085"
         r="11.756594" />
      <circle
         style="opacity:1;fill:#f8f8f8;fill-opacity:1;fill-rule:evenodd;stroke:#000000;stroke-width:2;stroke-linecap:round;stroke-linejoin:bevel;stroke-miterlimit:3;stroke-dasharray:none;stroke-opacity:1;paint-order:normal"
         id="path839"
         cx="98.69902"
         cy="132.40085"
         r="4.5386043" />
      <circle
         style="opacity:1;fill:#f8f8f8;fill-opacity:1;fill-rule:evenodd;stroke:#000000;stroke-width:2;stroke-linecap:round;stroke-linejoin:bevel;stroke-miterlimit:3;stroke-dasharray:none;stroke-opacity:1;paint-order:normal"
         id="path843"
         cx="133.34999"
         cy="124.64285"
         r="4.5357141" />
      <path
         style="fill:none;stroke:#000000;stroke-width:1.47241807;stroke-linecap:butt;stroke-linejoin:miter;stroke-miterlimit:4;stroke-dasharray:none;stroke-opacity:1"
         d="m 98.950675,124.58806 c 0,0 -6.604288,-2.05261 -8.125028,4.26863"
         id="path863" />
      <path
         style="fill:none;stroke:#000000;stroke-width:0.75001001;stroke-linecap:butt;stroke-linejoin:miter;stroke-miterlimit:4;stroke-dasharray:none;stroke-opacity:1"
         d="m 134.32229,122.34878 c 0,0 -3.10687,-1.13209 -3.82228,2.35431"
         id="path863-5" />
      <path
         style="fill:none;stroke:#000000;stroke-width:2.5;stroke-linecap:butt;stroke-linejoin:miter;stroke-miterlimit:3;stroke-dasharray:none;stroke-opacity:1"
         d="m 86.492298,149.3611 c 0,0 19.787142,5.19531 27.937602,-8.14181 7.0243,-11.49432 29.21473,-6.38574 29.21473,-6.38574"
         id="path841-3" />
      <circle
         style="opacity:1;fill:#fbd03d;fill-opacity:1;fill-rule:evenodd;stroke:#000000;stroke-width:2.23168135;stroke-linecap:round;stroke-linejoin:bevel;stroke-miterlimit:3;stroke-dasharray:none;stroke-opacity:1;paint-order:normal"
         id="path837-7"
         cx="130.16026"
         cy="150.40266"
         r="11.756595" />
      <circle
         style="opacity:1;fill:#f8f8f8;fill-opacity:1;fill-rule:evenodd;stroke:#000000;stroke-width:2;stroke-linecap:round;stroke-linejoin:bevel;stroke-miterlimit:3;stroke-dasharray:none;stroke-opacity:1;paint-order:normal"
         id="path839-0"
         cx="130.16026"
         cy="150.40266"
         r="4.5386043" />
      <path
         style="fill:none;stroke:#000000;stroke-width:1.47241807;stroke-linecap:butt;stroke-linejoin:miter;stroke-miterlimit:4;stroke-dasharray:none;stroke-opacity:1"
         d="m 130.41192,142.58987 c 0,0 -6.60429,-2.05261 -8.12503,4.26863"
         id="path863-9" />
    </g>
    <g
       transform="matrix(1.0245013,0,0,1.0245013,-2.8785131,-4.8520124)"
       id="g1059">
      <path
         style="fill:#8a0000;fill-opacity:1;stroke-width:0.02144994"
         d="m 118.59741,166.75893 c -0.867,-0.0924 -1.50923,-0.29405 -2.0316,-0.63797 -0.17735,-0.11676 -0.44171,-0.33505 -0.47259,-0.39021 -0.009,-0.016 -0.0138,-1.89045 -0.0109,-4.1654 l 0.005,-4.13629 0.47189,-0.1648 c 0.25955,-0.0906 0.47914,-0.16545 0.48799,-0.16624 0.009,-6e-4 0.0161,0.88257 0.0161,1.96303 0,1.08045 0.007,1.96123 0.0166,1.9573 0.009,-0.004 0.1322,-0.0666 0.27348,-0.13916 0.2866,-0.14729 0.59573,-0.26156 0.86877,-0.32114 0.14006,-0.0306 0.27278,-0.0397 0.57858,-0.0398 0.34881,-1.6e-4 0.42017,0.006 0.58987,0.0506 1.00695,0.26464 1.62962,1.04256 1.84779,2.3085 0.0507,0.29402 0.0504,0.95645 -5.7e-4,1.30651 -0.12413,0.85315 -0.42732,1.54045 -0.88059,1.99618 -0.48067,0.48328 -1.01338,0.65846 -1.76031,0.57889 z m 0.32175,-0.68578 c 0.24296,-0.0512 0.4058,-0.14364 0.60059,-0.34084 0.13472,-0.13639 0.19549,-0.21982 0.28275,-0.38822 0.27203,-0.52501 0.38989,-1.16778 0.36541,-1.99291 -0.0258,-0.87037 -0.19232,-1.3925 -0.56165,-1.76128 -0.28169,-0.28127 -0.58523,-0.39798 -1.04103,-0.40028 -0.39933,-0.002 -0.78109,0.0956 -1.24946,0.31939 l -0.25204,0.12045 v 1.99124 1.99125 l 0.0912,0.0665 c 0.4319,0.31515 1.26143,0.50073 1.76426,0.39468 z m 19.02609,0.68578 c -0.86699,-0.0924 -1.50922,-0.29405 -2.0316,-0.63797 -0.17734,-0.11676 -0.44171,-0.33505 -0.47258,-0.39021 -0.009,-0.016 -0.0139,-1.89045 -0.0109,-4.1654 l 0.005,-4.13629 0.4719,-0.1648 c 0.25954,-0.0906 0.47914,-0.16545 0.48798,-0.16624 0.009,-6e-4 0.0161,0.88257 0.0161,1.96303 0,1.08045 0.007,1.96123 0.0166,1.9573 0.009,-0.004 0.1322,-0.0666 0.27349,-0.13916 0.2866,-0.14729 0.59573,-0.26156 0.86877,-0.32114 0.14005,-0.0306 0.27277,-0.0397 0.57857,-0.0398 0.34881,-1.6e-4 0.42018,0.006 0.58987,0.0506 1.00696,0.26464 1.62962,1.04256 1.8478,2.3085 0.0507,0.29402 0.0504,0.95645 -5.7e-4,1.30651 -0.12414,0.85315 -0.42733,1.54045 -0.8806,1.99618 -0.48067,0.48328 -1.01338,0.65846 -1.76031,0.57889 z m 0.32175,-0.68578 c 0.24297,-0.0512 0.40581,-0.14364 0.6006,-0.34084 0.13472,-0.13639 0.19549,-0.21982 0.28274,-0.38822 0.27203,-0.52501 0.38989,-1.16778 0.36542,-1.99291 -0.0258,-0.87037 -0.19232,-1.3925 -0.56166,-1.76128 -0.28169,-0.28127 -0.58523,-0.39798 -1.04103,-0.40028 -0.39933,-0.002 -0.78108,0.0956 -1.24945,0.31939 l -0.25204,0.12045 v 1.99124 1.99125 l 0.0912,0.0665 c 0.43191,0.31515 1.26143,0.50073 1.76426,0.39468 z m -27.07218,0.66531 c -0.668,-0.11817 -1.20361,-0.50883 -1.42719,-1.04099 -0.12569,-0.29914 -0.12643,-0.31557 -0.12037,-2.68957 l 0.005,-2.1646 0.47189,-0.15755 c 0.25955,-0.0866 0.48879,-0.16294 0.50944,-0.16953 0.0356,-0.0114 0.0375,0.10155 0.0375,2.16754 0,2.44348 -0.005,2.36042 0.15402,2.69095 0.11868,0.24706 0.32415,0.45163 0.57746,0.57491 0.59556,0.28988 1.31036,0.21801 2.01796,-0.2029 l 0.16775,-0.0998 v -2.51628 -2.51628 h 0.49335 0.49335 l -2.1e-4,2.59008 -2.1e-4,2.59008 -0.23043,0.14963 c -0.62147,0.40355 -1.29286,0.66257 -2.00133,0.77213 -0.31862,0.0493 -0.92885,0.061 -1.14865,0.0222 z m 19.34784,0 c -0.668,-0.11817 -1.2036,-0.50883 -1.42719,-1.04099 -0.12569,-0.29914 -0.12642,-0.31557 -0.12036,-2.68957 l 0.005,-2.1646 0.4719,-0.15755 c 0.25955,-0.0866 0.48879,-0.16294 0.50944,-0.16953 0.0356,-0.0114 0.0375,0.10155 0.0375,2.16754 0,2.44348 -0.005,2.36042 0.15402,2.69095 0.11868,0.24706 0.32415,0.45163 0.57745,0.57491 0.59557,0.28988 1.31036,0.21801 2.01796,-0.2029 l 0.16776,-0.0998 v -2.51628 -2.51628 h 0.49334 0.49335 l -2.4e-4,2.59008 -2.4e-4,2.59008 -0.23043,0.14963 c -0.62147,0.40355 -1.29286,0.66257 -2.00133,0.77213 -0.31862,0.0493 -0.92885,0.061 -1.14865,0.0222 z m -6.27328,-0.0208 c -0.556,-0.0908 -1.1525,-0.31769 -1.64033,-0.62396 -0.20732,-0.13016 -0.47826,-0.34031 -0.49501,-0.38394 -0.01,-0.0253 0.35945,-0.66265 0.39738,-0.68609 0.01,-0.006 0.0744,0.0334 0.14384,0.0875 0.3186,0.24791 0.91233,0.54731 1.31052,0.66088 0.35421,0.10103 0.56035,0.12498 0.97153,0.1129 0.53761,-0.0158 0.77754,-0.0885 1.11678,-0.33861 0.29379,-0.21657 0.4899,-0.47724 0.59093,-0.78548 0.0545,-0.16616 0.0619,-0.21984 0.0615,-0.44628 -3.3e-4,-0.2042 -0.0101,-0.28861 -0.0475,-0.40844 -0.13295,-0.42601 -0.49283,-0.74222 -1.13639,-0.9985 -0.0919,-0.0366 -0.46145,-0.16567 -0.82127,-0.28686 -0.87718,-0.29542 -1.21729,-0.44017 -1.57657,-0.671 -0.18399,-0.1182 -0.46826,-0.40415 -0.56531,-0.56862 -0.36254,-0.61446 -0.37025,-1.51476 -0.019,-2.21457 0.33389,-0.66511 1.0117,-1.13218 1.87126,-1.28944 0.32371,-0.0592 0.99482,-0.0547 1.28838,0.009 0.45603,0.0984 0.86747,0.27551 1.30329,0.56085 l 0.23218,0.15202 -0.0492,0.0802 c -0.0271,0.0441 -0.12252,0.19325 -0.21211,0.33144 l -0.16289,0.25124 -0.17912,-0.11993 c -0.33976,-0.22746 -0.71896,-0.38992 -1.0739,-0.46006 -0.0808,-0.016 -0.28581,-0.0268 -0.4924,-0.0259 -0.30964,0.001 -0.38041,0.008 -0.56565,0.0572 -0.29035,0.0765 -0.49792,0.18378 -0.678,0.35052 -0.26612,0.24638 -0.40093,0.54505 -0.42283,0.93682 -0.0196,0.34966 0.0483,0.5519 0.26313,0.78391 0.26846,0.28997 0.56492,0.43283 1.62857,0.78476 0.89125,0.29489 1.05864,0.35801 1.31918,0.49746 0.82023,0.43901 1.22001,1.06135 1.25956,1.96076 0.0143,0.32348 -0.0151,0.55585 -0.10405,0.82376 -0.12754,0.38425 -0.34491,0.72089 -0.66563,1.03086 -0.4412,0.42639 -0.88926,0.66472 -1.49663,0.79607 -0.21037,0.0455 -0.31816,0.0549 -0.70925,0.0618 -0.32825,0.006 -0.51417,-4.9e-4 -0.64503,-0.0219 z m -20.92829,-4.38187 0.005,-4.32752 1.5873,4e-4 1.58729,4.1e-4 0.21008,0.0576 c 0.83715,0.22947 1.45038,0.79848 1.69453,1.57231 0.14555,0.46135 0.13198,1.06 -0.0345,1.52357 -0.24025,0.66884 -0.83499,1.19009 -1.5807,1.38536 -0.175,0.0459 -0.22689,0.048 -1.32434,0.0559 l -1.14221,0.008 v 2.02566 2.02566 h -0.50413 -0.50412 l 0.005,-4.32752 z m 2.94292,-0.44522 c 0.72435,-0.15344 1.18337,-0.71134 1.22645,-1.49063 0.0412,-0.74529 -0.44001,-1.41398 -1.17516,-1.63299 -0.14862,-0.0443 -0.20862,-0.0474 -1.07439,-0.0562 l -0.91699,-0.009 v 1.61069 1.61069 l 0.89554,-4e-4 c 0.70544,-3.3e-4 0.92716,-0.007 1.04455,-0.032 z"
         id="path1040" />
      <path
         style="fill:#272727;fill-opacity:1;stroke-width:0.02144994"
         d="m 98.523116,169.66386 c -0.01772,-0.0636 -0.05591,-0.20434 -0.08481,-0.31283 l -0.05255,-0.19724 0.05651,-0.011 c 0.03107,-0.006 0.194294,-0.0314 0.362674,-0.0564 0.586032,-0.0871 1.038509,-0.22462 1.3503,-0.4105 0.16931,-0.10094 0.39268,-0.3275 0.48354,-0.49046 0.15421,-0.27656 0.22258,-0.67067 0.24487,-1.41171 0.0135,-0.44697 0.0126,-0.46017 -0.0272,-0.44809 -0.0226,0.007 -0.14997,0.057 -0.28309,0.11148 -0.52734,0.21578 -1.086711,0.31957 -1.731363,0.32125 -0.379594,10e-4 -0.449041,-0.004 -0.603026,-0.0467 -0.580741,-0.15963 -1.044036,-0.51044 -1.26299,-0.95635 -0.183374,-0.37344 -0.171731,-0.19067 -0.171731,-2.69566 v -2.22007 l 0.482627,-0.16485 c 0.26544,-0.0907 0.489482,-0.16547 0.497868,-0.16624 0.0084,-6.1e-4 0.01868,1.00006 0.02293,2.22405 0.006,1.70694 0.01401,2.25041 0.03496,2.33268 0.01496,0.059 0.06583,0.18806 0.113011,0.28683 0.170817,0.35764 0.500825,0.5988 0.944785,0.69041 0.550268,0.11355 1.115569,-0.0141 1.791659,-0.40465 l 0.13406,-0.0774 v -2.45157 -2.45156 h 0.50407 0.50408 l -4e-4,2.86893 c -4.7e-4,3.37197 -0.0132,3.71977 -0.15919,4.36354 -0.0973,0.42902 -0.21086,0.64287 -0.49462,0.93159 -0.1928,0.19617 -0.43412,0.37063 -0.6864,0.49623 -0.46639,0.2322 -1.138948,0.40694 -1.719893,0.44686 l -0.218404,0.015 -0.03226,-0.11558 z m -8.030552,-7.32807 0.0054,-4.32752 1.5873,4e-4 1.587293,4.1e-4 0.210077,0.0576 c 0.837149,0.22947 1.450387,0.79848 1.694523,1.57231 0.145557,0.46135 0.131994,1.06 -0.03454,1.52357 -0.240246,0.66884 -0.834982,1.19009 -1.580698,1.38536 -0.175,0.0459 -0.226884,0.048 -1.324344,0.0559 l -1.142208,0.008 v 2.02566 2.02566 h -0.504129 -0.504123 z m 2.942931,-0.44522 c 0.724347,-0.15344 1.183372,-0.71134 1.226452,-1.49063 0.04118,-0.74529 -0.440009,-1.41398 -1.17516,-1.63299 -0.148621,-0.0443 -0.208628,-0.0474 -1.074401,-0.0562 l -0.916981,-0.009 v 1.61069 1.61069 l 0.895534,-3.9e-4 c 0.705443,-3.2e-4 0.927169,-0.007 1.044556,-0.032 z"
         id="path1040-3" />
    </g>
  </g>
</svg>
